<mxfile host="app.diagrams.net" modified="2023-05-27T09:59:10.927Z" agent="Mozilla/5.0 (Windows NT 10.0; Win64; x64) AppleWebKit/537.36 (KHTML, like Gecko) Chrome/113.0.0.0 Safari/537.36" etag="8HwlDFXS-KT7_B-NnJao" version="21.3.4" type="device" pages="3">
  <diagram name="Страница 1" id="SOpgWYDsMFcglq5xpHfZ">
    <mxGraphModel dx="1509" dy="778" grid="1" gridSize="10" guides="1" tooltips="1" connect="1" arrows="1" fold="1" page="1" pageScale="1" pageWidth="827" pageHeight="1169" math="0" shadow="0">
      <root>
        <mxCell id="0" />
        <mxCell id="1" parent="0" />
        <mxCell id="0xAi3sC-fCyHeg4lXml2-1" value="" style="whiteSpace=wrap;html=1;aspect=fixed;" vertex="1" parent="1">
          <mxGeometry x="90" y="130" width="930" height="930" as="geometry" />
        </mxCell>
        <mxCell id="0xAi3sC-fCyHeg4lXml2-2" value="" style="rounded=0;whiteSpace=wrap;html=1;" vertex="1" parent="1">
          <mxGeometry x="110" y="140" width="900" height="90" as="geometry" />
        </mxCell>
        <mxCell id="0xAi3sC-fCyHeg4lXml2-3" value="Логотип" style="whiteSpace=wrap;html=1;aspect=fixed;" vertex="1" parent="1">
          <mxGeometry x="130" y="155" width="60" height="60" as="geometry" />
        </mxCell>
        <mxCell id="0xAi3sC-fCyHeg4lXml2-4" value="Навигация" style="rounded=0;whiteSpace=wrap;html=1;" vertex="1" parent="1">
          <mxGeometry x="570" y="177.5" width="370" height="15" as="geometry" />
        </mxCell>
        <mxCell id="0xAi3sC-fCyHeg4lXml2-6" value="" style="rounded=0;whiteSpace=wrap;html=1;" vertex="1" parent="1">
          <mxGeometry x="140" y="330" width="400" height="180" as="geometry" />
        </mxCell>
        <mxCell id="0xAi3sC-fCyHeg4lXml2-8" value="" style="rounded=0;whiteSpace=wrap;html=1;" vertex="1" parent="1">
          <mxGeometry x="580" y="330" width="400" height="180" as="geometry" />
        </mxCell>
        <mxCell id="0xAi3sC-fCyHeg4lXml2-12" value="" style="whiteSpace=wrap;html=1;aspect=fixed;" vertex="1" parent="1">
          <mxGeometry x="160" y="630" width="140" height="140" as="geometry" />
        </mxCell>
        <mxCell id="0xAi3sC-fCyHeg4lXml2-13" value="" style="whiteSpace=wrap;html=1;aspect=fixed;" vertex="1" parent="1">
          <mxGeometry x="370" y="630" width="140" height="140" as="geometry" />
        </mxCell>
        <mxCell id="0xAi3sC-fCyHeg4lXml2-14" value="" style="whiteSpace=wrap;html=1;aspect=fixed;" vertex="1" parent="1">
          <mxGeometry x="590" y="630" width="140" height="140" as="geometry" />
        </mxCell>
        <mxCell id="0xAi3sC-fCyHeg4lXml2-15" value="" style="whiteSpace=wrap;html=1;aspect=fixed;" vertex="1" parent="1">
          <mxGeometry x="800" y="630" width="140" height="140" as="geometry" />
        </mxCell>
        <mxCell id="0xAi3sC-fCyHeg4lXml2-16" value="" style="rounded=0;whiteSpace=wrap;html=1;" vertex="1" parent="1">
          <mxGeometry x="90" y="920" width="930" height="170" as="geometry" />
        </mxCell>
        <mxCell id="0xAi3sC-fCyHeg4lXml2-17" value="Футер" style="text;html=1;strokeColor=none;fillColor=none;align=center;verticalAlign=middle;whiteSpace=wrap;rounded=0;" vertex="1" parent="1">
          <mxGeometry x="110" y="920" width="60" height="30" as="geometry" />
        </mxCell>
        <mxCell id="0xAi3sC-fCyHeg4lXml2-18" value="Слайдер" style="text;html=1;strokeColor=none;fillColor=none;align=center;verticalAlign=middle;whiteSpace=wrap;rounded=0;" vertex="1" parent="1">
          <mxGeometry x="140" y="300" width="60" height="30" as="geometry" />
        </mxCell>
        <mxCell id="0xAi3sC-fCyHeg4lXml2-19" value="Карточки" style="text;html=1;strokeColor=none;fillColor=none;align=center;verticalAlign=middle;whiteSpace=wrap;rounded=0;" vertex="1" parent="1">
          <mxGeometry x="140" y="600" width="60" height="30" as="geometry" />
        </mxCell>
        <mxCell id="0xAi3sC-fCyHeg4lXml2-20" value="Покупателям" style="rounded=0;whiteSpace=wrap;html=1;" vertex="1" parent="1">
          <mxGeometry x="150" y="950" width="110" height="130" as="geometry" />
        </mxCell>
        <mxCell id="0xAi3sC-fCyHeg4lXml2-21" value="Компания" style="rounded=0;whiteSpace=wrap;html=1;" vertex="1" parent="1">
          <mxGeometry x="827" y="950" width="110" height="130" as="geometry" />
        </mxCell>
        <mxCell id="0xAi3sC-fCyHeg4lXml2-22" value="Выгодные предложения" style="rounded=0;whiteSpace=wrap;html=1;" vertex="1" parent="1">
          <mxGeometry x="510" y="950" width="110" height="130" as="geometry" />
        </mxCell>
      </root>
    </mxGraphModel>
  </diagram>
  <diagram id="7GFn-H4-lwWhkWE97NNR" name="Страница 2">
    <mxGraphModel dx="2607" dy="1344" grid="1" gridSize="10" guides="1" tooltips="1" connect="1" arrows="1" fold="1" page="1" pageScale="1" pageWidth="827" pageHeight="1169" math="0" shadow="0">
      <root>
        <mxCell id="0" />
        <mxCell id="1" parent="0" />
        <mxCell id="R8lbaTg2vj0nrNhv4vOr-1" value="" style="whiteSpace=wrap;html=1;aspect=fixed;" vertex="1" parent="1">
          <mxGeometry x="90" y="130" width="930" height="930" as="geometry" />
        </mxCell>
        <mxCell id="R8lbaTg2vj0nrNhv4vOr-2" value="" style="rounded=0;whiteSpace=wrap;html=1;" vertex="1" parent="1">
          <mxGeometry x="110" y="140" width="900" height="90" as="geometry" />
        </mxCell>
        <mxCell id="R8lbaTg2vj0nrNhv4vOr-3" value="Логотип" style="whiteSpace=wrap;html=1;aspect=fixed;" vertex="1" parent="1">
          <mxGeometry x="130" y="155" width="60" height="60" as="geometry" />
        </mxCell>
        <mxCell id="R8lbaTg2vj0nrNhv4vOr-4" value="Навигация" style="rounded=0;whiteSpace=wrap;html=1;" vertex="1" parent="1">
          <mxGeometry x="570" y="177.5" width="370" height="15" as="geometry" />
        </mxCell>
        <mxCell id="R8lbaTg2vj0nrNhv4vOr-11" value="" style="rounded=0;whiteSpace=wrap;html=1;" vertex="1" parent="1">
          <mxGeometry x="90" y="920" width="930" height="170" as="geometry" />
        </mxCell>
        <mxCell id="R8lbaTg2vj0nrNhv4vOr-12" value="Футер" style="text;html=1;strokeColor=none;fillColor=none;align=center;verticalAlign=middle;whiteSpace=wrap;rounded=0;" vertex="1" parent="1">
          <mxGeometry x="110" y="920" width="60" height="30" as="geometry" />
        </mxCell>
        <mxCell id="R8lbaTg2vj0nrNhv4vOr-15" value="Покупателям" style="rounded=0;whiteSpace=wrap;html=1;" vertex="1" parent="1">
          <mxGeometry x="150" y="950" width="110" height="130" as="geometry" />
        </mxCell>
        <mxCell id="R8lbaTg2vj0nrNhv4vOr-16" value="Компания" style="rounded=0;whiteSpace=wrap;html=1;" vertex="1" parent="1">
          <mxGeometry x="827" y="950" width="110" height="130" as="geometry" />
        </mxCell>
        <mxCell id="R8lbaTg2vj0nrNhv4vOr-17" value="Выгодные предложения" style="rounded=0;whiteSpace=wrap;html=1;" vertex="1" parent="1">
          <mxGeometry x="510" y="950" width="110" height="130" as="geometry" />
        </mxCell>
        <mxCell id="UvU7_ZCscQoxQA2hZvzu-2" value="" style="rounded=1;whiteSpace=wrap;html=1;" vertex="1" parent="1">
          <mxGeometry x="200" y="330" width="130" height="30" as="geometry" />
        </mxCell>
        <mxCell id="UvU7_ZCscQoxQA2hZvzu-3" value="" style="rounded=1;whiteSpace=wrap;html=1;" vertex="1" parent="1">
          <mxGeometry x="414" y="330" width="130" height="30" as="geometry" />
        </mxCell>
        <mxCell id="UvU7_ZCscQoxQA2hZvzu-4" value="" style="rounded=1;whiteSpace=wrap;html=1;" vertex="1" parent="1">
          <mxGeometry x="620" y="330" width="130" height="30" as="geometry" />
        </mxCell>
        <mxCell id="UvU7_ZCscQoxQA2hZvzu-5" value="" style="rounded=1;whiteSpace=wrap;html=1;" vertex="1" parent="1">
          <mxGeometry x="800" y="330" width="130" height="30" as="geometry" />
        </mxCell>
        <mxCell id="UvU7_ZCscQoxQA2hZvzu-10" value="" style="rounded=1;whiteSpace=wrap;html=1;" vertex="1" parent="1">
          <mxGeometry x="200" y="410" width="150" height="230" as="geometry" />
        </mxCell>
        <mxCell id="UvU7_ZCscQoxQA2hZvzu-11" value="" style="rounded=1;whiteSpace=wrap;html=1;" vertex="1" parent="1">
          <mxGeometry x="610" y="420" width="150" height="230" as="geometry" />
        </mxCell>
        <mxCell id="UvU7_ZCscQoxQA2hZvzu-12" value="" style="rounded=1;whiteSpace=wrap;html=1;" vertex="1" parent="1">
          <mxGeometry x="404" y="410" width="150" height="230" as="geometry" />
        </mxCell>
        <mxCell id="UvU7_ZCscQoxQA2hZvzu-13" value="" style="rounded=1;whiteSpace=wrap;html=1;" vertex="1" parent="1">
          <mxGeometry x="807" y="420" width="150" height="230" as="geometry" />
        </mxCell>
        <mxCell id="UvU7_ZCscQoxQA2hZvzu-14" value="" style="rounded=1;whiteSpace=wrap;html=1;" vertex="1" parent="1">
          <mxGeometry x="200" y="670" width="150" height="230" as="geometry" />
        </mxCell>
        <mxCell id="UvU7_ZCscQoxQA2hZvzu-15" value="" style="rounded=1;whiteSpace=wrap;html=1;" vertex="1" parent="1">
          <mxGeometry x="404" y="670" width="150" height="230" as="geometry" />
        </mxCell>
        <mxCell id="UvU7_ZCscQoxQA2hZvzu-16" value="" style="rounded=1;whiteSpace=wrap;html=1;" vertex="1" parent="1">
          <mxGeometry x="620" y="670" width="150" height="230" as="geometry" />
        </mxCell>
        <mxCell id="UvU7_ZCscQoxQA2hZvzu-17" value="" style="rounded=1;whiteSpace=wrap;html=1;" vertex="1" parent="1">
          <mxGeometry x="810" y="670" width="150" height="230" as="geometry" />
        </mxCell>
        <mxCell id="UvU7_ZCscQoxQA2hZvzu-19" value="Кнопки переключения категорий" style="text;html=1;strokeColor=none;fillColor=none;align=center;verticalAlign=middle;whiteSpace=wrap;rounded=0;" vertex="1" parent="1">
          <mxGeometry x="160" y="300" width="150" height="30" as="geometry" />
        </mxCell>
        <mxCell id="UvU7_ZCscQoxQA2hZvzu-20" value="Карточки товаров" style="text;html=1;strokeColor=none;fillColor=none;align=center;verticalAlign=middle;whiteSpace=wrap;rounded=0;" vertex="1" parent="1">
          <mxGeometry x="200" y="380" width="120" height="30" as="geometry" />
        </mxCell>
      </root>
    </mxGraphModel>
  </diagram>
  <diagram id="D0rb4sJXto3kMz0wOgqq" name="Страница 3">
    <mxGraphModel dx="2607" dy="1344" grid="1" gridSize="10" guides="1" tooltips="1" connect="1" arrows="1" fold="1" page="1" pageScale="1" pageWidth="827" pageHeight="1169" math="0" shadow="0">
      <root>
        <mxCell id="0" />
        <mxCell id="1" parent="0" />
        <mxCell id="FIUvjf7SdC7NAg2pw1U9-1" value="" style="whiteSpace=wrap;html=1;aspect=fixed;" vertex="1" parent="1">
          <mxGeometry x="90" y="130" width="930" height="930" as="geometry" />
        </mxCell>
        <mxCell id="FIUvjf7SdC7NAg2pw1U9-2" value="" style="rounded=0;whiteSpace=wrap;html=1;" vertex="1" parent="1">
          <mxGeometry x="110" y="140" width="900" height="90" as="geometry" />
        </mxCell>
        <mxCell id="FIUvjf7SdC7NAg2pw1U9-3" value="Логотип" style="whiteSpace=wrap;html=1;aspect=fixed;" vertex="1" parent="1">
          <mxGeometry x="130" y="155" width="60" height="60" as="geometry" />
        </mxCell>
        <mxCell id="FIUvjf7SdC7NAg2pw1U9-4" value="Навигация" style="rounded=0;whiteSpace=wrap;html=1;" vertex="1" parent="1">
          <mxGeometry x="570" y="177.5" width="370" height="15" as="geometry" />
        </mxCell>
        <mxCell id="FIUvjf7SdC7NAg2pw1U9-5" value="" style="rounded=0;whiteSpace=wrap;html=1;" vertex="1" parent="1">
          <mxGeometry x="90" y="920" width="930" height="170" as="geometry" />
        </mxCell>
        <mxCell id="FIUvjf7SdC7NAg2pw1U9-6" value="Футер" style="text;html=1;strokeColor=none;fillColor=none;align=center;verticalAlign=middle;whiteSpace=wrap;rounded=0;" vertex="1" parent="1">
          <mxGeometry x="110" y="920" width="60" height="30" as="geometry" />
        </mxCell>
        <mxCell id="FIUvjf7SdC7NAg2pw1U9-7" value="Покупателям" style="rounded=0;whiteSpace=wrap;html=1;" vertex="1" parent="1">
          <mxGeometry x="150" y="950" width="110" height="130" as="geometry" />
        </mxCell>
        <mxCell id="FIUvjf7SdC7NAg2pw1U9-8" value="Компания" style="rounded=0;whiteSpace=wrap;html=1;" vertex="1" parent="1">
          <mxGeometry x="827" y="950" width="110" height="130" as="geometry" />
        </mxCell>
        <mxCell id="FIUvjf7SdC7NAg2pw1U9-9" value="Выгодные предложения" style="rounded=0;whiteSpace=wrap;html=1;" vertex="1" parent="1">
          <mxGeometry x="510" y="950" width="110" height="130" as="geometry" />
        </mxCell>
        <mxCell id="90C8joURPL08d9Zltl-q-1" value="" style="rounded=1;whiteSpace=wrap;html=1;" vertex="1" parent="1">
          <mxGeometry x="195" y="290" width="720" height="250" as="geometry" />
        </mxCell>
        <mxCell id="90C8joURPL08d9Zltl-q-2" value="Контент" style="text;html=1;strokeColor=none;fillColor=none;align=center;verticalAlign=middle;whiteSpace=wrap;rounded=0;" vertex="1" parent="1">
          <mxGeometry x="280" y="340" width="60" height="30" as="geometry" />
        </mxCell>
        <mxCell id="90C8joURPL08d9Zltl-q-3" value="" style="rounded=1;whiteSpace=wrap;html=1;" vertex="1" parent="1">
          <mxGeometry x="350" y="580" width="120" height="120" as="geometry" />
        </mxCell>
        <mxCell id="90C8joURPL08d9Zltl-q-4" value="" style="rounded=1;whiteSpace=wrap;html=1;" vertex="1" parent="1">
          <mxGeometry x="660" y="750" width="120" height="120" as="geometry" />
        </mxCell>
        <mxCell id="90C8joURPL08d9Zltl-q-5" value="" style="rounded=1;whiteSpace=wrap;html=1;" vertex="1" parent="1">
          <mxGeometry x="354" y="750" width="120" height="120" as="geometry" />
        </mxCell>
        <mxCell id="90C8joURPL08d9Zltl-q-6" value="" style="rounded=1;whiteSpace=wrap;html=1;" vertex="1" parent="1">
          <mxGeometry x="660" y="580" width="120" height="120" as="geometry" />
        </mxCell>
        <mxCell id="90C8joURPL08d9Zltl-q-8" value="Карточки" style="text;html=1;strokeColor=none;fillColor=none;align=center;verticalAlign=middle;whiteSpace=wrap;rounded=0;" vertex="1" parent="1">
          <mxGeometry x="220" y="570" width="60" height="30" as="geometry" />
        </mxCell>
      </root>
    </mxGraphModel>
  </diagram>
</mxfile>
